<svg id="Layer_1" data-name="Layer 1" xmlns="http://www.w3.org/2000/svg" viewBox="0 0 1245.31 438.54"><defs><style>.cls-1{fill:#ddae64;}.cls-2{fill:#c98a3f;}.cls-3{fill:#e28824;}.cls-4{fill:#cca37a;}.cls-5{fill:#7a967a;}.cls-6{fill:#627762;}.cls-7{fill:#85a085;}.cls-8{fill:#a7c4a7;}.cls-9{fill:#f4f2ce;}.cls-10{fill:#a8a396;}.cls-11{fill:#c6c3b5;}.cls-12{fill:#4c7249;}.cls-13{fill:#7cc671;}.cls-14{fill:#58a84f;}</style></defs><path class="cls-1" d="M114,656c-20.09,6.09-49.95,15.65-49,23,2.23,17.29,173.33,9.75,336-1-8.36,5.66-16.38,12.56-15,18,6.15,24.3,193.13-6.94,197,12,1.91,9.32-41.61,25.84-39,33,2.23,6.13,35.13-3.48,39,5,4.16,9.13-30,29-26,38,2.65,6,21.06,4.41,36,1,45-10.27,52.51-35.68,95-50,30.84-10.39,29.4,2.15,58-9,36.35-14.17,51.19-39.31,79-35,9.61,1.49,13.23,5.33,23,4,17.53-2.38,25.87-17.44,35-26,19.87-18.63,47.23-10,117-4,33.44,2.86,72.62,6.07,116,3,13.45-1,99.11-7,101-25,2-19.32-93.43-44.1-120-51C681.2,484.05,246,616,114,656Z" transform="translate(-64.98 -349.49)"/><path class="cls-2" d="M1154.59,384.22c32.49,36.49,19.17,101.5,6.87,127.91-28.46,61.09-120.67,64-325.26,81.83-222.43,19.4-112.53,15.9-630.57,44.69-45.65,2.54-96.08,5.17-97.65-3.43-3-16.77,185.65-42.57,436.66-140.28C594,475.73,694.45,434.78,842.39,382.16c0,0,163.6-58.18,278.5-19.25C1128.71,365.56,1142.88,371.08,1154.59,384.22Z" transform="translate(-64.98 -349.49)"/><path class="cls-3" d="M156.12,629.72c32-1.69,80.57-4.38,139.59-8.26,166.63-11,182.91-16,323.2-26.13,127.07-9.19,252.94-43,380.27-38.51,17.51.62,64,2.77,99.71-26.81,28-23.17,54.6-70.09,38.5-110.72-6.89-17.41-19.63-28.61-28.88-35.07a114.52,114.52,0,0,1,11.69,55c-.38,9.21-2.79,39.84-24.75,66-22.91,27.3-74.26,58.3-114.84,33.7-29.45-17.86-43.73-59.26-32.32-100.4,1.74,10.83,9.48,64.9-21.32,89.39-9.64,7.67-23.61,9.93-51.57,14.44-40.69,6.57-61,9.86-81.83,2.07-27.84-10.44-44.29-33.84-53-50.2,12.52,16.89,12.33,39,.69,53C729,562,709.22,561.09,706.93,561q-7.57-26.13-15.13-52.26c2.39,7.64,5.11,20.77-.69,33-3.4,7.18-11.34,17.43-50.2,27.5-42.72,11.07-73.63,19.08-108.65,4.13-10.37-4.43-27.5-13.61-44-33,3.54,3.06,18.53,16.69,17.88,36.45-.13,4-.23,7.12-2.06,10.31-10.88,19-63,6.63-73.58,4.13a196.15,196.15,0,0,1-54.32-22q31.92,16.77,30.25,28.88Q401.94,630.57,156.12,629.72Z" transform="translate(-64.98 -349.49)"/><path class="cls-4" d="M120.57,639c30.8-8.94,77.48-22.36,134.39-38.26,160.68-44.87,177.33-46.44,312.83-83.56C690.52,483.6,818,467.9,937.7,424.44c16.47-6,60-22.19,101-12.4,32.06,7.66,68.46,32.7,62.84,66.76-2.4,14.59-11.83,26.61-19.06,34.13,2.18-8.3,5.14-24.91-2-42.92-2.56-6.45-12.12-27.52-39.17-39.23-28.22-12.23-84.31-18.09-117,12.28-23.69,22.05-27.41,56.08-6.8,81.8-.93-8.27-6.43-49.27-41.47-57-11-2.41-24.76.4-52.36,6-40.16,8.17-60.24,12.26-78.12,24.4a96.22,96.22,0,0,0-38.3,52.53c7.86-16,2.43-31.69-11.93-38-15.25-6.66-33.75.24-35.89,1.07q-1,21-1.93,42c.45-6.2-.09-16.42-8.5-23.31-4.93-4-14.9-8.85-54.16-3.74-43.16,5.61-74.39,9.67-104,31.41a123.28,123.28,0,0,0-33.91,37.45c2.63-3.3,13.61-17.76,8.3-31.64-1.08-2.83-1.92-5-4.41-6.7C446,549.32,399.45,574.61,390,579.74a237.93,237.93,0,0,0-46.31,32.86q26.31-22,21.84-30.15Q353.58,560.7,120.57,639Z" transform="translate(-64.98 -349.49)"/><path class="cls-5" d="M907,568.37c-27.24,93.47-265.13,90-310.41,89.37-32.28-.46-282.86-4.09-307-99.26-.36-1.44-8-33.52,10.62-54.66,42.17-47.87,144.63,44.85,300,39.06,149.2-5.56,231.84-97.65,284.6-52.62C906.43,508.67,914.49,542.72,907,568.37Z" transform="translate(-64.98 -349.49)"/><path class="cls-6" d="M308.28,516c11.05-7,36.25,39.46,93.68,74.3,64.47,39.12,129.86,39.53,201.64,40,82.6.52,135.84.85,187.94-33.47,42.72-28.14,68.61-69,84.13-60.75,9.54,5.07,10.58,26.27,4.43,41.59-8.9,22.18-33.43,33.48-85.24,46.16-75.07,18.38-134.36,21.76-138.8,22-79.17,4.13-132.68-2-201.57-10.25-75.55-9-99.23-17.17-118.43-37C307.06,568.66,298.2,522.34,308.28,516Z" transform="translate(-64.98 -349.49)"/><path class="cls-7" d="M331.62,503.33c11-7,36.25,39.47,93.68,74.31,64.47,39.11,129.85,39.52,201.64,40,82.6.52,135.83.85,187.94-33.47,42.72-28.14,68.6-69,84.12-60.74,9.55,5.06,10.59,26.27,4.44,41.59-8.9,22.17-33.44,33.48-85.24,46.16-75.08,18.37-134.36,21.76-138.81,22-79.16,4.12-132.68-2-201.56-10.26-75.56-9-99.23-17.16-118.43-37C330.4,556,321.54,509.69,331.62,503.33Z" transform="translate(-64.98 -349.49)"/><path class="cls-7" d="M369.38,533.1a8.69,8.69,0,0,1,10.24-12.46c4.82,1.44,8.32,8.06,6.52,15.66" transform="translate(-64.98 -349.49)"/><path class="cls-7" d="M447.36,542.54a8.68,8.68,0,0,1,10.23-12.46c4.83,1.44,8.33,8.06,6.53,15.65" transform="translate(-64.98 -349.49)"/><path class="cls-7" d="M447.36,542.54a8.68,8.68,0,0,1,10.23-12.46c4.83,1.44,8.33,8.06,6.53,15.65" transform="translate(-64.98 -349.49)"/><path class="cls-7" d="M447.36,542.54a8.68,8.68,0,0,1,10.23-12.46c4.83,1.44,8.33,8.06,6.53,15.65" transform="translate(-64.98 -349.49)"/><path class="cls-7" d="M418.21,552.34a8.68,8.68,0,0,1,10.23-12.45c4.83,1.43,8.33,8.05,6.53,15.65" transform="translate(-64.98 -349.49)"/><path class="cls-7" d="M447.48,585.76a8.68,8.68,0,0,1,10.23-12.45c4.83,1.43,8.33,8.05,6.53,15.65" transform="translate(-64.98 -349.49)"/><path class="cls-7" d="M676.3,611.17a8.68,8.68,0,0,1,10.23-12.45c4.82,1.43,8.33,8,6.53,15.65" transform="translate(-64.98 -349.49)"/><path class="cls-7" d="M778.35,585a8.67,8.67,0,0,1,10.23-12.45c4.82,1.43,8.33,8,6.52,15.65" transform="translate(-64.98 -349.49)"/><path class="cls-7" d="M732.05,589a8.68,8.68,0,0,1,10.23-12.45c4.83,1.43,8.33,8,6.53,15.65" transform="translate(-64.98 -349.49)"/><path class="cls-7" d="M701.71,557.77a8.68,8.68,0,0,1,10.23-12.46c4.83,1.44,8.33,8.06,6.53,15.65" transform="translate(-64.98 -349.49)"/><path class="cls-7" d="M774.08,546.77a8.68,8.68,0,0,1,10.23-12.46c4.83,1.43,8.33,8.05,6.53,15.65" transform="translate(-64.98 -349.49)"/><path class="cls-7" d="M483.46,573.19a8.68,8.68,0,0,1,10.23-12.46c4.82,1.44,8.33,8.06,6.53,15.65" transform="translate(-64.98 -349.49)"/><path class="cls-7" d="M824.72,531.7A8.68,8.68,0,0,1,835,519.24c4.82,1.44,8.33,8.06,6.53,15.65" transform="translate(-64.98 -349.49)"/><path class="cls-7" d="M844.63,506.06a8.67,8.67,0,0,1,10.23-12.45c4.82,1.43,8.33,8.05,6.52,15.65" transform="translate(-64.98 -349.49)"/><path class="cls-8" d="M681.11,581.07a8.68,8.68,0,0,1,10.24-12.45c4.82,1.43,8.32,8,6.52,15.65" transform="translate(-64.98 -349.49)"/><path class="cls-8" d="M501.75,601.81A8.68,8.68,0,0,1,512,589.36c4.82,1.43,8.33,8,6.52,15.65" transform="translate(-64.98 -349.49)"/><path class="cls-8" d="M447.42,565a8.67,8.67,0,0,1,10.23-12.45c4.82,1.43,8.33,8,6.53,15.65" transform="translate(-64.98 -349.49)"/><path class="cls-8" d="M351.9,565.46A8.68,8.68,0,0,1,362.13,553c4.83,1.43,8.33,8,6.53,15.65" transform="translate(-64.98 -349.49)"/><path class="cls-8" d="M404.69,611.79a7.53,7.53,0,0,1,.65-9.19c3-3.42,8.55-4.14,12.2-3.28,6.06,1.43,10.45,8,8.18,15.65" transform="translate(-64.98 -349.49)"/><path class="cls-8" d="M842.94,588.69a8.68,8.68,0,0,1,10.23-12.45c4.83,1.43,8.33,8,6.53,15.65" transform="translate(-64.98 -349.49)"/><path class="cls-8" d="M787.14,518.47A8.68,8.68,0,0,1,797.37,506c4.82,1.43,8.33,8.05,6.52,15.65" transform="translate(-64.98 -349.49)"/><path class="cls-8" d="M719.88,622.94a8.68,8.68,0,0,1,10.23-12.46c4.83,1.44,8.33,8.06,6.53,15.66" transform="translate(-64.98 -349.49)"/><path class="cls-9" d="M897,512c-11.65,18.19,4,37.65-9,71a95,95,0,0,1-19,30l136,3c-7.66-9.56-16.68-23.6-21-42-8.6-36.61,9.43-56.16-2-71C967,483.51,912.8,487.33,897,512Z" transform="translate(-64.98 -349.49)"/><path class="cls-9" d="M1032.41,537.14c-7.15,9.69-35.33-14.55-93-15-59.74-.47-89.6,25.07-97,15-10.72-14.6,32.48-95,95-95S1043.09,522.67,1032.41,537.14Z" transform="translate(-64.98 -349.49)"/><path class="cls-10" d="M1033,526c-7.15,9.69-35.33-14.55-93-15-59.74-.47-89.61,25.07-97,15-10.72-14.6,32.47-95,95-95S1043.67,511.54,1033,526Z" transform="translate(-64.98 -349.49)"/><path class="cls-9" d="M1031,526c.88-2.25-35.42-27.51-83.5-31-57.26-4.16-103.29,24.57-102.5,27s42.37-19.6,102-16C996.92,509,1030.17,528.12,1031,526Z" transform="translate(-64.98 -349.49)"/><path class="cls-11" d="M940.92,434c28.8-.5,50.43,18.35,58.1,33.88a38.23,38.23,0,0,1,3.17,24.84L987.4,466.38c2.77,7,4.71,13.1,3.17,13.55-2.89.84-14.75-19-19-18.07-2.71.6-2.32,9.56,5.28,36.14.29-2.41,2.5-25.73-23.24-41.41-20-12.21-43.48-11.52-48.59-11.29A68.06,68.06,0,0,1,940.92,434Z" transform="translate(-64.98 -349.49)"/><path class="cls-12" d="M1164.21,426.16c2.54-.61,5,12.76,21.32,25.3,26.92,20.7,66.1,19.58,68.08,19.51,27.09-1.08,39.19-11.68,43.32-8.44,8.27,6.5-26.37,59.85-91.46,92.24-40.52,20.16-70.09,20.87-188.41,36.37-96.37,12.61-144.56,18.92-160.91,23.19C708.51,652.82,647.06,744.42,620.28,730.81c-15.37-7.82-11-46.1,15.13-61.67,37.56-22.37,88.07,21.16,146.47,4.22,69.17-20.06,68.3-101.43,116.21-102.78,32.95-.93,41.78,37.31,97,42.69,4.26.42,47.83,4.24,67.39-14.76,18-17.45-.09-38.88,14.44-47.43,19.08-11.22,54.36,23.26,107.27,19.5,39.7-2.82,77.44-26.33,75-42.16-2.51-16-44.2-12.42-73.58-41.64C1159.82,461.2,1160.25,427.13,1164.21,426.16Z" transform="translate(-64.98 -349.49)"/><path class="cls-13" d="M1176.37,414.54c2.54-.61,5,12.76,21.32,25.3,26.91,20.7,66.1,19.58,68.07,19.5,27.1-1.07,39.19-11.67,43.32-8.43,8.28,6.5-26.36,59.85-91.45,92.24-40.53,20.16-70.1,20.87-188.42,36.37-96.37,12.61-144.55,18.92-160.91,23.19C720.67,641.2,659.22,732.8,632.44,719.19c-15.38-7.82-11-46.1,15.13-61.67,37.55-22.37,88.07,21.16,146.47,4.22C863.2,641.67,862.34,560.31,910.25,559c32.94-.93,41.78,37.31,97,42.69,4.25.42,47.83,4.24,67.39-14.76,18-17.45-.09-38.88,14.44-47.43,19.07-11.22,54.36,23.26,107.27,19.5,39.7-2.82,77.44-26.33,75-42.17s-44.2-12.41-73.57-41.63C1172,449.58,1172.41,415.51,1176.37,414.54Z" transform="translate(-64.98 -349.49)"/><path class="cls-14" d="M1159.53,390.05c2.48-.84,6.09,12.27,23.44,23.35,28.61,18.28,67.55,13.76,69.51,13.51,26.9-3.43,38-15,42.43-12.16,8.81,5.75-21.07,61.91-83.1,99.83-38.62,23.61-68,26.89-184.54,52.6-94.91,21-142.37,31.42-158.29,37.09C725.25,655.44,672,752,644.13,740.8c-16-6.45-15-45,9.71-62.75,35.47-25.54,89.58,13.43,146.28-8.52,67.17-26,59.23-107,106.85-112.49,32.74-3.79,44.86,33.54,100.3,34.11,4.27,0,48,.07,65.85-20.56,16.39-19-3.47-38.73,10.26-48.51,18-12.84,56.18,18.45,108.57,10.11,39.3-6.27,74.86-33,71-48.52-3.89-15.72-45.11-8.53-76.91-35.09C1158.2,425.34,1155.67,391.35,1159.53,390.05Z" transform="translate(-64.98 -349.49)"/><path class="cls-12" d="M1153,451c2.54-.62,5,12.75,21.32,25.3,26.91,20.69,66.1,19.58,68.07,19.5,27.1-1.08,39.19-11.68,43.32-8.43,8.28,6.5-26.36,59.85-91.45,92.23-40.53,20.17-70.1,20.88-188.42,36.37-96.37,12.62-144.55,18.93-160.91,23.19-147.63,38.49-209.08,130.1-235.86,116.48-15.38-7.81-11-46.09,15.13-61.66,37.55-22.37,88.07,21.15,146.47,4.21,69.16-20.06,68.3-101.42,116.21-102.77,32.94-.93,41.77,37.3,97,42.69,4.25.41,47.83,4.24,67.39-14.76,18-17.46-.09-38.89,14.44-47.44,19.07-11.22,54.36,23.27,107.27,19.51,39.7-2.83,77.44-26.34,75-42.17-2.51-16-44.2-12.42-73.57-41.64C1148.59,486,1149,452,1153,451Z" transform="translate(-64.98 -349.49)"/><path class="cls-14" d="M1159.08,451c2.09-.51,4.12,10.48,17.53,20.8,22.14,17,54.36,16.1,56,16,22.28-.88,32.22-9.6,35.62-6.93,6.81,5.34-21.68,49.21-75.2,75.84-33.32,16.58-57.64,17.17-154.93,29.91C958.84,597,919.22,602.2,905.77,605.7c-121.39,31.65-171.92,107-193.94,95.78-12.64-6.43-9.06-37.9,12.44-50.7,30.88-18.4,72.42,17.39,120.44,3.46,56.87-16.49,56.16-83.4,95.55-84.51,27.1-.76,34.36,30.68,79.73,35.11,3.5.34,39.33,3.48,55.41-12.14,14.78-14.35-.07-32,11.88-39,15.68-9.23,44.69,19.13,88.2,16,32.64-2.32,63.68-21.65,61.63-34.67s-36.34-10.21-60.5-34.23C1155.47,479.8,1155.83,451.78,1159.08,451Z" transform="translate(-64.98 -349.49)"/></svg>